<svg aria-hidden="true" style="position: absolute; width: 40; height: 40; overflow: hidden;" version="1.1"
    xmlns="http://www.w3.org/2000/svg" xmlns:xlink="http://www.w3.org/1999/xlink">
    <defs>
        <symbol id="icon-diagram" viewBox="0 0 64 64">
            <title>diagram</title>
            <path fill="#4d5ae5" style="fill: var(--color1, #4d5ae5)" d="M7.463 7.482h0.533v2.399h-0.533v-2.399z">
            </path>
            <path fill="#4d5ae5" style="fill: var(--color1, #4d5ae5)" d="M9.595 8.548h0.533v1.333h-0.533v-1.333z">
            </path>
            <path fill="#4d5ae5" style="fill: var(--color1, #4d5ae5)" d="M5.331 9.348h0.533v0.533h-0.533v-0.533z">
            </path>
            <path fill="#4d5ae5" style="fill: var(--color1, #4d5ae5)" d="M3.731 9.081h0.533v0.8h-0.533v-0.8z"></path>
            <path fill="#2e2f42" style="fill: var(--color2, #2e2f42)"
                d="M0.8 14.145h12.793c0.442 0 0.8-0.358 0.8-0.8v-1.066c0-0.442-0.358-0.8-0.8-0.8h-0.267v-6.647l1.514-1.434c0.351 0.173 0.777 0.068 1.007-0.249s0.198-0.754-0.076-1.034-0.71-0.322-1.032-0.099c-0.322 0.223-0.437 0.646-0.271 1.001l-1.141 1.081v-0.615c0-0.442-0.358-0.8-0.8-0.8h-10.661c-0.442 0-0.8 0.358-0.8 0.8v7.996h-0.267c-0.442 0-0.8 0.358-0.8 0.8v1.066c0 0.442 0.358 0.8 0.8 0.8zM15.192 2.418c0.147 0 0.267 0.119 0.267 0.267s-0.119 0.267-0.267 0.267c-0.147 0-0.267-0.119-0.267-0.267s0.119-0.267 0.267-0.267zM1.599 3.484c0-0.147 0.119-0.267 0.267-0.267h10.661c0.147 0 0.267 0.119 0.267 0.267v1.119l-0.533 0.507v-1.093c0-0.147-0.119-0.267-0.267-0.267h-9.595c-0.147 0-0.267 0.119-0.267 0.267v6.663c0 0.147 0.119 0.267 0.267 0.267h9.595c0.147 0 0.267-0.119 0.267-0.267v-4.837l0.533-0.505v6.142h-11.194v-7.996zM3.998 6.949c-0.361-0.001-0.677 0.239-0.773 0.587s0.053 0.716 0.363 0.9c0.31 0.184 0.705 0.138 0.964-0.113l0.926 0.465c0.108 0.054 0.238 0.029 0.318-0.061l1.969-2.216 1.936 1.451c0.104 0.078 0.249 0.070 0.343-0.020l1.683-1.594v4.066h-9.062v-6.13h9.062v1.33l-1.886 1.786-1.952-1.464c-0.111-0.083-0.267-0.067-0.359 0.036l-1.996 2.246-0.746-0.373c0.005-0.032 0.009-0.064 0.010-0.097 0-0.442-0.358-0.8-0.8-0.8zM4.264 7.749c0 0.147-0.119 0.267-0.267 0.267s-0.267-0.119-0.267-0.267c0-0.147 0.119-0.267 0.267-0.267s0.267 0.119 0.267 0.267zM5.864 12.013h2.665v0.267c0 0.147-0.119 0.267-0.267 0.267h-2.132c-0.147 0-0.267-0.119-0.267-0.267v-0.267zM0.533 12.28c0-0.147 0.119-0.267 0.267-0.267h4.531v0.267c0 0.442 0.358 0.8 0.8 0.8h2.132c0.442 0 0.8-0.358 0.8-0.8v-0.267h4.531c0.147 0 0.267 0.119 0.267 0.267v1.066c0 0.147-0.119 0.267-0.267 0.267h-12.793c-0.147 0-0.267-0.119-0.267-0.267v-1.066z">
            </path>
        </symbol>
        <symbol id="icon-clock" viewBox="0 0 64 64">
            <title>clock</title>
            <path fill="#2e2f42" style="fill: var(--color2, #2e2f42)"
                d="M15.648 7.651c-0.001-4.226-3.428-7.651-7.654-7.651s-7.651 3.428-7.651 7.654c0.001 3.329 2.153 6.276 5.325 7.288 0.030 0.010 0.062 0.014 0.093 0.014 0.060-0 0.119-0.016 0.171-0.047 0.067-0.040 0.118-0.103 0.142-0.178l1.932-6.125c0.528-0.003 0.954-0.433 0.952-0.961s-0.433-0.954-0.961-0.952c-0.142 0.001-0.282 0.033-0.41 0.096l-2.553-2.553c-0.127-0.122-0.329-0.119-0.451 0.008-0.119 0.124-0.119 0.319 0 0.443l2.552 2.555c-0.196 0.4-0.084 0.882 0.268 1.155l-1.841 5.836c-3.639-1.34-5.502-5.377-4.162-9.016s5.377-5.502 9.016-4.162c3.639 1.34 5.502 5.377 4.162 9.016-0.655 1.778-2 3.216-3.731 3.987l-0.199-0.937c-0.036-0.172-0.206-0.282-0.378-0.246-0.054 0.012-0.105 0.037-0.146 0.074l-1.918 1.713c-0.132 0.117-0.143 0.319-0.026 0.45 0.038 0.043 0.087 0.074 0.142 0.092l2.449 0.782c0.168 0.054 0.347-0.038 0.401-0.206 0.017-0.053 0.020-0.109 0.008-0.164l-0.196-0.92c2.832-1.194 4.671-3.971 4.664-7.045zM7.996 7.332c0.176 0 0.319 0.143 0.319 0.319s-0.143 0.319-0.319 0.319c-0.176 0-0.319-0.143-0.319-0.319s0.143-0.319 0.319-0.319zM9.046 14.764l1.092-0.974 0.301 1.42-1.393-0.446z">
            </path>
            <path fill="#4d5ae5" style="fill: var(--color1, #4d5ae5)"
                d="M7.677 1.593v0.638c0 0.176 0.143 0.319 0.319 0.319s0.319-0.143 0.319-0.319v-0.638c0-0.176-0.143-0.319-0.319-0.319s-0.319 0.143-0.319 0.319z">
            </path>
            <path fill="#4d5ae5" style="fill: var(--color1, #4d5ae5)"
                d="M1.938 7.332c-0.176 0-0.319 0.143-0.319 0.319s0.143 0.319 0.319 0.319h0.638c0.176 0 0.319-0.143 0.319-0.319s-0.143-0.319-0.319-0.319h-0.638z">
            </path>
            <path fill="#4d5ae5" style="fill: var(--color1, #4d5ae5)"
                d="M14.054 7.969c0.176 0 0.319-0.143 0.319-0.319s-0.143-0.319-0.319-0.319h-0.638c-0.176 0-0.319 0.143-0.319 0.319s0.143 0.319 0.319 0.319h0.638z">
            </path>
        </symbol>
        <symbol id="icon-antenna" viewBox="0 0 64 64">
            <title>antenna</title>
            <path fill="#2e2f42" style="fill: var(--color2, #2e2f42)"
                d="M15.387 11.049l-4.222-4.253 0.469-2.308c0.121 0.047 0.249 0.072 0.379 0.073h0.003c0.596 0.007 1.085-0.471 1.092-1.067s-0.47-1.085-1.067-1.092c-0.596-0.007-1.085 0.47-1.092 1.067-0.002 0.128 0.020 0.254 0.062 0.375l-2.48 0.303-4.045-4.066c-0.050-0.051-0.117-0.079-0.188-0.080s-0.137 0.028-0.187 0.078l-0.756 0.752c-0.104 0.104-0.104 0.273 0 0.377l0.407 0.413c-1.577 2.899-1.064 6.489 1.26 8.831 0.021 0.020 0.046 0.037 0.073 0.049-0.017 0.090-0.026 0.182-0.026 0.274v3.093h-3.2c-0.736 0.001-1.332 0.597-1.333 1.333v0.533c0 0.147 0.119 0.267 0.267 0.267h12.267c0.147 0 0.267-0.119 0.267-0.267v-0.533c-0.001-0.736-0.597-1.332-1.333-1.333h-3.2v-1.371c0.501 0.105 1.012 0.159 1.524 0.16 1.229-0.001 2.439-0.308 3.52-0.892l0.409 0.411c0.050 0.051 0.117 0.079 0.188 0.080s0.137-0.028 0.187-0.078l0.756-0.752c0.104-0.104 0.104-0.273 0-0.377zM11.64 3.117c0.209-0.208 0.547-0.207 0.754 0.002s0.207 0.547-0.002 0.754c-0.1 0.099-0.235 0.155-0.376 0.155h-0.002c-0.295-0.002-0.532-0.242-0.531-0.536 0.001-0.141 0.057-0.276 0.157-0.375h-0.001zM11.012 4.869l-0.299 1.473-0.588-0.591 0.887-0.882zM10.709 4.418l-0.96 0.954-0.743-0.747 1.703-0.208zM12.002 14.4c0.442 0 0.8 0.358 0.8 0.8v0.267h-11.733v-0.267c0-0.442 0.358-0.8 0.8-0.8h10.133zM8.269 13.333v0.533h-2.667v-0.533h2.667zM5.602 12.8v-2.027c0-0.647 0.598-1.173 1.333-1.173s1.333 0.526 1.333 1.173v2.027h-2.667zM8.802 11.952v-1.179c0-0.941-0.837-1.707-1.867-1.707-0.666-0.010-1.288 0.329-1.641 0.893-2.029-2.137-2.486-5.323-1.139-7.944l9.301 9.354c-1.436 0.731-3.083 0.936-4.654 0.582zM14.447 11.61l-10.529-10.59 0.377-0.376 3.967 3.99c0.002 0 0.003 0.003 0.005 0.005l6.557 6.596-0.378 0.376z">
            </path>
            <path fill="#4d5ae5" style="fill: var(--color1, #4d5ae5)"
                d="M6.938 10.133h-0.002c-0.442-0.001-0.801 0.357-0.801 0.799s0.357 0.801 0.799 0.801h0.002c0.442 0.001 0.801-0.357 0.801-0.799s-0.357-0.801-0.799-0.801zM7.124 11.122c-0.050 0.050-0.118 0.078-0.189 0.078-0.147-0.001-0.266-0.121-0.265-0.268 0-0.070 0.029-0.138 0.079-0.188s0.117-0.077 0.187-0.078c0.147 0.001 0.266 0.121 0.265 0.268-0 0.070-0.029 0.138-0.079 0.188h0.002z">
            </path>
        </symbol>
        <symbol id="icon-astronaut" viewBox="0 0 64 64">
            <path fill="#4d5ae5"
                d="M16 2h-1l-1-1-1 1-1 1h1v1h2V3h1V2zm-1 1v1l-1-1v1-1h-1l1-1h1v1zm-2 7v1-1zm0 1v1-1zm1 0h-1 1zm-1 0h-1 1zm-2 2v1-1zm0 1v1-1zm1 0h-1 1zm-1 0h-1 1zm-3-2H7v1h1v-1zm0 1H7v1h1v-1zm1 0H8h1zm-2 0zM3 3H2v1h1V3zm0 1H2v1h1V4zm0 0zM2 4z"
                style="fill:var(--color1, #4d5ae5)" />
            <path fill="#2e2f42"
                d="M12 7h-2v1H9a3 3 0 0 0-2-7 3 3 0 0 0-3 6H1L0 8a1 1 0 0 0 1 1h1l1-1h1l-3 3-1 1a1 1 0 0 0 0 1 1 1 0 0 0 2 0v-1h2l-1 1-1 1a1 1 0 0 0 0 1 1 1 0 0 0 1 0l2-2 3-3h2l2-1V7zM1 9V8l1 1H1zm2-1H2l1-1v1zm7-3v1L8 5V2c2 0 2 1 2 3zM4 5a3 3 0 0 1 4-3L7 4 6 5l1 1h3a3 3 0 0 1-6-1zm3 0zm-6 8v-1h1l-1 1zm2 1H2h1zm2-1-1 1-1-1 1-1-1-1-1 1v-1l1-1 2 2v1zm3-4-3 3-2-2 2-2H3V7h2a3 3 0 0 0 3 1l1 1H8zm2 0 1-1v1h-1zm2-1h-1V7h1v1z"
                style="fill:var(--color2, #2e2f42)" />
            <path fill="#2e2f42" d="M7 9 6 8H5L4 9v1l1 1h1l1-1V9c0-1 0 0 0 0zm-1 1L5 9h1v1zm3-7H8l1 1h1L9 3zm1 2H9h1z"
                style="fill:var(--color2, #2e2f42)" />
        </symbol>

        <symbol id="icon-facebook" viewBox="0 0 16 16">
            <title>facebook</title>
            <path
                d="M10.665 2.657h1.461v-2.544c-0.252-0.035-1.119-0.113-2.128-0.113-2.106 0-3.549 1.325-3.549 3.759v2.241h-2.324v2.844h2.324v7.156h2.849v-7.155h2.23l0.354-2.844h-2.585v-1.959c0.001-0.822 0.222-1.385 1.367-1.385z">
            </path>
        </symbol>
        <symbol id="icon-instagram" viewBox="0 0 16 16">
            <title>instagram</title>
            <path
                d="M15.984 4.704c-0.037-0.85-0.175-1.435-0.372-1.941-0.203-0.538-0.516-1.019-0.925-1.419-0.4-0.406-0.885-0.722-1.416-0.922-0.509-0.197-1.091-0.334-1.941-0.372-0.857-0.041-1.128-0.050-3.301-0.050s-2.444 0.009-3.298 0.047c-0.85 0.037-1.435 0.175-1.941 0.372-0.538 0.203-1.019 0.516-1.419 0.925-0.406 0.4-0.722 0.885-0.922 1.416-0.197 0.51-0.334 1.091-0.372 1.941-0.041 0.856-0.050 1.128-0.050 3.301s0.009 2.444 0.047 3.297c0.037 0.85 0.175 1.435 0.372 1.941 0.203 0.538 0.519 1.019 0.925 1.419 0.4 0.406 0.885 0.722 1.416 0.922 0.51 0.197 1.091 0.334 1.941 0.372 0.853 0.038 1.125 0.047 3.298 0.047s2.444-0.009 3.298-0.047c0.85-0.037 1.435-0.175 1.941-0.372 1.075-0.416 1.925-1.266 2.341-2.341 0.197-0.509 0.334-1.091 0.372-1.941 0.038-0.853 0.047-1.125 0.047-3.297s-0.003-2.444-0.041-3.298zM14.543 11.236c-0.034 0.781-0.166 1.203-0.275 1.485-0.269 0.697-0.822 1.25-1.519 1.519-0.281 0.109-0.706 0.241-1.485 0.275-0.844 0.038-1.097 0.047-3.232 0.047s-2.391-0.009-3.232-0.047c-0.781-0.034-1.203-0.165-1.485-0.275-0.347-0.128-0.663-0.331-0.919-0.597-0.266-0.259-0.469-0.572-0.597-0.919-0.109-0.281-0.241-0.706-0.275-1.485-0.038-0.844-0.047-1.097-0.047-3.232s0.009-2.391 0.047-3.232c0.034-0.781 0.166-1.203 0.275-1.485 0.128-0.347 0.331-0.663 0.6-0.919 0.259-0.266 0.572-0.469 0.919-0.597 0.281-0.109 0.706-0.241 1.485-0.275 0.844-0.037 1.097-0.047 3.232-0.047 2.138 0 2.391 0.009 3.232 0.047 0.781 0.034 1.203 0.166 1.485 0.275 0.347 0.128 0.663 0.331 0.919 0.597 0.266 0.259 0.469 0.572 0.597 0.919 0.109 0.281 0.241 0.706 0.275 1.485 0.037 0.844 0.047 1.097 0.047 3.232s-0.009 2.385-0.047 3.229z">
            </path>
            <path
                d="M8.030 3.891c-2.269 0-4.11 1.841-4.11 4.11s1.841 4.11 4.11 4.11c2.269 0 4.11-1.841 4.11-4.11s-1.841-4.11-4.11-4.11zM8.030 10.668c-1.472 0-2.666-1.194-2.666-2.666s1.194-2.666 2.666-2.666c1.472 0 2.666 1.194 2.666 2.666s-1.194 2.666-2.666 2.666z">
            </path>
            <path
                d="M13.262 3.729c0 0.53-0.43 0.96-0.96 0.96s-0.96-0.43-0.96-0.96c0-0.53 0.43-0.96 0.96-0.96s0.96 0.43 0.96 0.96z">
            </path>
        </symbol>
        <symbol id="icon-linkedin" viewBox="0 0 16 16">
            <title>linkedin</title>
            <path
                d="M15.996 16v-0.001h0.004v-5.868c0-2.871-0.618-5.082-3.974-5.082-1.613 0-2.696 0.885-3.138 1.725h-0.047v-1.457h-3.182v10.682h3.313v-5.289c0-1.393 0.264-2.739 1.989-2.739 1.699 0 1.725 1.589 1.725 2.829v5.201h3.31z">
            </path>
            <path d="M0.264 5.318h3.317v10.682h-3.317v-10.682z"></path>
            <path
                d="M1.921-0c-1.061 0-1.921 0.861-1.921 1.921s0.861 1.939 1.921 1.939c1.061 0 1.921-0.879 1.921-1.939s-0.861-1.921-1.921-1.921v0z">
            </path>
        </symbol>
        <symbol id="icon-twitter" viewBox="0 0 16 16">
            <title>twitter</title>
            <path
                d="M16 3.039c-0.595 0.261-1.229 0.434-1.89 0.518 0.68-0.406 1.199-1.044 1.443-1.813-0.634 0.378-1.334 0.645-2.080 0.794-0.602-0.641-1.46-1.038-2.396-1.038-1.816 0-3.278 1.474-3.278 3.281 0 0.26 0.022 0.51 0.076 0.748-2.727-0.133-5.14-1.44-6.761-3.431-0.283 0.491-0.449 1.053-0.449 1.658 0 1.136 0.585 2.143 1.457 2.726-0.527-0.010-1.044-0.163-1.482-0.404 0 0.010 0 0.023 0 0.036 0 1.594 1.137 2.918 2.628 3.223-0.267 0.073-0.558 0.108-0.86 0.108-0.21 0-0.422-0.012-0.621-0.056 0.425 1.299 1.631 2.254 3.065 2.285-1.116 0.873-2.533 1.399-4.067 1.399-0.269 0-0.527-0.012-0.785-0.045 1.453 0.937 3.175 1.472 5.032 1.472 6.036 0 9.336-5 9.336-9.334 0-0.145-0.005-0.285-0.012-0.424 0.651-0.462 1.198-1.039 1.644-1.703z">
            </path>
        </symbol>
    </defs>
</svg>